<mxfile host="Electron" modified="2023-05-14T09:47:52.371Z" agent="Mozilla/5.0 (Windows NT 10.0; Win64; x64) AppleWebKit/537.36 (KHTML, like Gecko) draw.io/21.1.2 Chrome/106.0.5249.199 Electron/21.4.3 Safari/537.36" etag="BYL0ZZuWxXdBaH8GHD8U" version="21.1.2" type="device">
  <diagram name="Страница 1" id="zRpGXyhoXogTOKsOjseX">
    <mxGraphModel dx="1723" dy="1156" grid="1" gridSize="10" guides="1" tooltips="1" connect="1" arrows="1" fold="1" page="1" pageScale="1" pageWidth="827" pageHeight="1169" math="0" shadow="0">
      <root>
        <mxCell id="0" />
        <mxCell id="1" parent="0" />
        <mxCell id="lvGtgaAsYZaq5mR69gwt-1" value="Установка пароля" style="swimlane;whiteSpace=wrap;html=1;" parent="1" vertex="1">
          <mxGeometry width="1650" height="310" as="geometry" />
        </mxCell>
        <mxCell id="h_IpUAW98vgzTFfaiGCl-2" style="edgeStyle=orthogonalEdgeStyle;rounded=0;orthogonalLoop=1;jettySize=auto;html=1;" parent="lvGtgaAsYZaq5mR69gwt-1" target="lvGtgaAsYZaq5mR69gwt-7" edge="1">
          <mxGeometry relative="1" as="geometry">
            <mxPoint x="321" y="90" as="targetPoint" />
            <mxPoint x="60" y="109" as="sourcePoint" />
          </mxGeometry>
        </mxCell>
        <mxCell id="lvGtgaAsYZaq5mR69gwt-13" style="edgeStyle=orthogonalEdgeStyle;rounded=0;orthogonalLoop=1;jettySize=auto;html=1;entryX=0;entryY=0.5;entryDx=0;entryDy=0;" parent="lvGtgaAsYZaq5mR69gwt-1" source="lvGtgaAsYZaq5mR69gwt-7" target="h_IpUAW98vgzTFfaiGCl-8" edge="1">
          <mxGeometry relative="1" as="geometry">
            <mxPoint x="341" y="109" as="targetPoint" />
          </mxGeometry>
        </mxCell>
        <mxCell id="lvGtgaAsYZaq5mR69gwt-14" value="Да" style="edgeLabel;html=1;align=center;verticalAlign=middle;resizable=0;points=[];" parent="lvGtgaAsYZaq5mR69gwt-13" vertex="1" connectable="0">
          <mxGeometry x="-0.2356" y="-2" relative="1" as="geometry">
            <mxPoint y="-11" as="offset" />
          </mxGeometry>
        </mxCell>
        <mxCell id="h_IpUAW98vgzTFfaiGCl-154" value="Нет" style="edgeStyle=orthogonalEdgeStyle;rounded=0;orthogonalLoop=1;jettySize=auto;html=1;entryX=0.5;entryY=1;entryDx=0;entryDy=0;" parent="lvGtgaAsYZaq5mR69gwt-1" source="lvGtgaAsYZaq5mR69gwt-7" target="h_IpUAW98vgzTFfaiGCl-153" edge="1">
          <mxGeometry relative="1" as="geometry">
            <Array as="points">
              <mxPoint x="166" y="270" />
              <mxPoint x="1470" y="270" />
            </Array>
          </mxGeometry>
        </mxCell>
        <mxCell id="lvGtgaAsYZaq5mR69gwt-7" value="Установлен&lt;br&gt;пароль по умолчанию?" style="rhombus;whiteSpace=wrap;html=1;" parent="lvGtgaAsYZaq5mR69gwt-1" vertex="1">
          <mxGeometry x="101" y="59.5" width="130" height="99" as="geometry" />
        </mxCell>
        <mxCell id="lvGtgaAsYZaq5mR69gwt-12" value="Сохранение данных в базе данных и установка пароля, как используемого" style="rounded=0;whiteSpace=wrap;html=1;" parent="lvGtgaAsYZaq5mR69gwt-1" vertex="1">
          <mxGeometry x="920" y="79" width="120" height="60" as="geometry" />
        </mxCell>
        <mxCell id="h_IpUAW98vgzTFfaiGCl-3" value="" style="ellipse;html=1;shape=endState;fillColor=#000000;strokeColor=#ff0000;" parent="lvGtgaAsYZaq5mR69gwt-1" vertex="1">
          <mxGeometry x="1584" y="83.25" width="50" height="50" as="geometry" />
        </mxCell>
        <mxCell id="h_IpUAW98vgzTFfaiGCl-4" style="edgeStyle=orthogonalEdgeStyle;rounded=0;orthogonalLoop=1;jettySize=auto;html=1;entryX=0;entryY=0.5;entryDx=0;entryDy=0;" parent="lvGtgaAsYZaq5mR69gwt-1" source="lvGtgaAsYZaq5mR69gwt-12" target="h_IpUAW98vgzTFfaiGCl-150" edge="1">
          <mxGeometry relative="1" as="geometry">
            <mxPoint x="1101" y="109" as="targetPoint" />
          </mxGeometry>
        </mxCell>
        <mxCell id="h_IpUAW98vgzTFfaiGCl-7" value="" style="ellipse;whiteSpace=wrap;html=1;aspect=fixed;" parent="lvGtgaAsYZaq5mR69gwt-1" vertex="1">
          <mxGeometry x="11" y="86" width="50" height="50" as="geometry" />
        </mxCell>
        <mxCell id="h_IpUAW98vgzTFfaiGCl-10" style="edgeStyle=orthogonalEdgeStyle;rounded=0;orthogonalLoop=1;jettySize=auto;html=1;entryX=0;entryY=0.5;entryDx=0;entryDy=0;" parent="lvGtgaAsYZaq5mR69gwt-1" source="h_IpUAW98vgzTFfaiGCl-8" target="h_IpUAW98vgzTFfaiGCl-9" edge="1">
          <mxGeometry relative="1" as="geometry" />
        </mxCell>
        <mxCell id="h_IpUAW98vgzTFfaiGCl-8" value="Открытие окна для установки пароля" style="rounded=0;whiteSpace=wrap;html=1;" parent="lvGtgaAsYZaq5mR69gwt-1" vertex="1">
          <mxGeometry x="261" y="80" width="120" height="60" as="geometry" />
        </mxCell>
        <mxCell id="h_IpUAW98vgzTFfaiGCl-12" style="edgeStyle=orthogonalEdgeStyle;rounded=0;orthogonalLoop=1;jettySize=auto;html=1;entryX=0;entryY=0.5;entryDx=0;entryDy=0;" parent="lvGtgaAsYZaq5mR69gwt-1" source="h_IpUAW98vgzTFfaiGCl-9" target="h_IpUAW98vgzTFfaiGCl-11" edge="1">
          <mxGeometry relative="1" as="geometry" />
        </mxCell>
        <mxCell id="h_IpUAW98vgzTFfaiGCl-9" value="Ввод нового пароля и повтор ввода новвого пароля" style="rounded=0;whiteSpace=wrap;html=1;" parent="lvGtgaAsYZaq5mR69gwt-1" vertex="1">
          <mxGeometry x="411" y="79" width="120" height="60" as="geometry" />
        </mxCell>
        <mxCell id="h_IpUAW98vgzTFfaiGCl-15" value="Да" style="edgeStyle=orthogonalEdgeStyle;rounded=0;orthogonalLoop=1;jettySize=auto;html=1;entryX=0;entryY=0.5;entryDx=0;entryDy=0;" parent="lvGtgaAsYZaq5mR69gwt-1" source="h_IpUAW98vgzTFfaiGCl-11" target="h_IpUAW98vgzTFfaiGCl-14" edge="1">
          <mxGeometry relative="1" as="geometry" />
        </mxCell>
        <mxCell id="h_IpUAW98vgzTFfaiGCl-16" value="Нет" style="edgeStyle=orthogonalEdgeStyle;rounded=0;orthogonalLoop=1;jettySize=auto;html=1;entryX=0.25;entryY=0;entryDx=0;entryDy=0;" parent="lvGtgaAsYZaq5mR69gwt-1" source="h_IpUAW98vgzTFfaiGCl-11" target="h_IpUAW98vgzTFfaiGCl-13" edge="1">
          <mxGeometry relative="1" as="geometry">
            <Array as="points">
              <mxPoint x="636" y="160" />
              <mxPoint x="691" y="160" />
            </Array>
          </mxGeometry>
        </mxCell>
        <mxCell id="h_IpUAW98vgzTFfaiGCl-11" value="Введенные пароли одинаковы?" style="rhombus;whiteSpace=wrap;html=1;" parent="lvGtgaAsYZaq5mR69gwt-1" vertex="1">
          <mxGeometry x="571" y="59.5" width="130" height="99" as="geometry" />
        </mxCell>
        <mxCell id="h_IpUAW98vgzTFfaiGCl-18" style="edgeStyle=orthogonalEdgeStyle;rounded=0;orthogonalLoop=1;jettySize=auto;html=1;entryX=0.5;entryY=0;entryDx=0;entryDy=0;" parent="lvGtgaAsYZaq5mR69gwt-1" source="h_IpUAW98vgzTFfaiGCl-13" target="h_IpUAW98vgzTFfaiGCl-8" edge="1">
          <mxGeometry relative="1" as="geometry">
            <Array as="points">
              <mxPoint x="551" y="210" />
              <mxPoint x="551" y="60" />
              <mxPoint x="321" y="60" />
            </Array>
          </mxGeometry>
        </mxCell>
        <mxCell id="h_IpUAW98vgzTFfaiGCl-13" value="Вывод сообщения об ошибке и очистка полей" style="rounded=0;whiteSpace=wrap;html=1;" parent="lvGtgaAsYZaq5mR69gwt-1" vertex="1">
          <mxGeometry x="661" y="180" width="120" height="60" as="geometry" />
        </mxCell>
        <mxCell id="h_IpUAW98vgzTFfaiGCl-17" value="Да" style="edgeStyle=orthogonalEdgeStyle;rounded=0;orthogonalLoop=1;jettySize=auto;html=1;entryX=0.75;entryY=0;entryDx=0;entryDy=0;" parent="lvGtgaAsYZaq5mR69gwt-1" source="h_IpUAW98vgzTFfaiGCl-14" target="h_IpUAW98vgzTFfaiGCl-13" edge="1">
          <mxGeometry relative="1" as="geometry">
            <Array as="points">
              <mxPoint x="806" y="160" />
              <mxPoint x="751" y="160" />
            </Array>
          </mxGeometry>
        </mxCell>
        <mxCell id="h_IpUAW98vgzTFfaiGCl-19" value="Нет" style="edgeStyle=orthogonalEdgeStyle;rounded=0;orthogonalLoop=1;jettySize=auto;html=1;entryX=0;entryY=0.5;entryDx=0;entryDy=0;" parent="lvGtgaAsYZaq5mR69gwt-1" source="h_IpUAW98vgzTFfaiGCl-14" target="lvGtgaAsYZaq5mR69gwt-12" edge="1">
          <mxGeometry relative="1" as="geometry" />
        </mxCell>
        <mxCell id="h_IpUAW98vgzTFfaiGCl-14" value="&lt;font style=&quot;font-size: 10px;&quot;&gt;Введенный пароль&amp;nbsp;&lt;br&gt;совпадает с одним из прошлых паролей?&lt;/font&gt;" style="rhombus;whiteSpace=wrap;html=1;" parent="lvGtgaAsYZaq5mR69gwt-1" vertex="1">
          <mxGeometry x="741" y="59.5" width="130" height="99" as="geometry" />
        </mxCell>
        <mxCell id="h_IpUAW98vgzTFfaiGCl-45" style="edgeStyle=orthogonalEdgeStyle;rounded=0;orthogonalLoop=1;jettySize=auto;html=1;exitX=1;exitY=0.5;exitDx=0;exitDy=0;entryX=0;entryY=0.5;entryDx=0;entryDy=0;" parent="lvGtgaAsYZaq5mR69gwt-1" source="h_IpUAW98vgzTFfaiGCl-153" target="h_IpUAW98vgzTFfaiGCl-3" edge="1">
          <mxGeometry relative="1" as="geometry">
            <mxPoint x="1525" y="111" as="sourcePoint" />
          </mxGeometry>
        </mxCell>
        <mxCell id="h_IpUAW98vgzTFfaiGCl-157" style="edgeStyle=orthogonalEdgeStyle;rounded=0;orthogonalLoop=1;jettySize=auto;html=1;entryX=0;entryY=0.5;entryDx=0;entryDy=0;" parent="lvGtgaAsYZaq5mR69gwt-1" source="h_IpUAW98vgzTFfaiGCl-152" target="h_IpUAW98vgzTFfaiGCl-153" edge="1">
          <mxGeometry relative="1" as="geometry" />
        </mxCell>
        <mxCell id="h_IpUAW98vgzTFfaiGCl-152" value="Выдача уведомления об успешном изменении данных" style="rounded=0;whiteSpace=wrap;html=1;" parent="lvGtgaAsYZaq5mR69gwt-1" vertex="1">
          <mxGeometry x="1255" y="77.75" width="120" height="61" as="geometry" />
        </mxCell>
        <mxCell id="h_IpUAW98vgzTFfaiGCl-155" value="Нет" style="edgeStyle=orthogonalEdgeStyle;rounded=0;orthogonalLoop=1;jettySize=auto;html=1;entryX=1;entryY=0.5;entryDx=0;entryDy=0;" parent="lvGtgaAsYZaq5mR69gwt-1" source="h_IpUAW98vgzTFfaiGCl-150" target="h_IpUAW98vgzTFfaiGCl-13" edge="1">
          <mxGeometry relative="1" as="geometry">
            <mxPoint x="1145" y="198" as="targetPoint" />
            <Array as="points">
              <mxPoint x="1145" y="210" />
            </Array>
          </mxGeometry>
        </mxCell>
        <mxCell id="h_IpUAW98vgzTFfaiGCl-156" value="Да" style="edgeStyle=orthogonalEdgeStyle;rounded=0;orthogonalLoop=1;jettySize=auto;html=1;entryX=0;entryY=0.5;entryDx=0;entryDy=0;" parent="lvGtgaAsYZaq5mR69gwt-1" source="h_IpUAW98vgzTFfaiGCl-150" target="h_IpUAW98vgzTFfaiGCl-152" edge="1">
          <mxGeometry relative="1" as="geometry" />
        </mxCell>
        <mxCell id="h_IpUAW98vgzTFfaiGCl-150" value="&lt;span style=&quot;font-size: 11px;&quot;&gt;Изменения&lt;br&gt;записаны успешно?&lt;/span&gt;" style="rhombus;whiteSpace=wrap;html=1;" parent="lvGtgaAsYZaq5mR69gwt-1" vertex="1">
          <mxGeometry x="1080" y="59.5" width="130" height="99" as="geometry" />
        </mxCell>
        <mxCell id="h_IpUAW98vgzTFfaiGCl-153" value="Открытие главного окна" style="rounded=0;whiteSpace=wrap;html=1;" parent="lvGtgaAsYZaq5mR69gwt-1" vertex="1">
          <mxGeometry x="1410" y="77.75" width="120" height="61" as="geometry" />
        </mxCell>
        <mxCell id="h_IpUAW98vgzTFfaiGCl-21" value="Вход по паролю" style="swimlane;whiteSpace=wrap;html=1;" parent="1" vertex="1">
          <mxGeometry y="320" width="1040" height="310" as="geometry" />
        </mxCell>
        <mxCell id="h_IpUAW98vgzTFfaiGCl-22" style="edgeStyle=orthogonalEdgeStyle;rounded=0;orthogonalLoop=1;jettySize=auto;html=1;" parent="h_IpUAW98vgzTFfaiGCl-21" target="h_IpUAW98vgzTFfaiGCl-25" edge="1">
          <mxGeometry relative="1" as="geometry">
            <mxPoint x="321" y="90" as="targetPoint" />
            <mxPoint x="60" y="109" as="sourcePoint" />
          </mxGeometry>
        </mxCell>
        <mxCell id="h_IpUAW98vgzTFfaiGCl-23" style="edgeStyle=orthogonalEdgeStyle;rounded=0;orthogonalLoop=1;jettySize=auto;html=1;entryX=0;entryY=0.5;entryDx=0;entryDy=0;" parent="h_IpUAW98vgzTFfaiGCl-21" source="h_IpUAW98vgzTFfaiGCl-25" target="h_IpUAW98vgzTFfaiGCl-33" edge="1">
          <mxGeometry relative="1" as="geometry">
            <mxPoint x="341" y="109" as="targetPoint" />
          </mxGeometry>
        </mxCell>
        <mxCell id="h_IpUAW98vgzTFfaiGCl-24" value="Да" style="edgeLabel;html=1;align=center;verticalAlign=middle;resizable=0;points=[];" parent="h_IpUAW98vgzTFfaiGCl-23" vertex="1" connectable="0">
          <mxGeometry x="-0.2356" y="-2" relative="1" as="geometry">
            <mxPoint y="-11" as="offset" />
          </mxGeometry>
        </mxCell>
        <mxCell id="h_IpUAW98vgzTFfaiGCl-25" value="&lt;font style=&quot;font-size: 11px;&quot;&gt;Пароль установлен,&lt;br&gt;как используемый?&lt;/font&gt;" style="rhombus;whiteSpace=wrap;html=1;" parent="h_IpUAW98vgzTFfaiGCl-21" vertex="1">
          <mxGeometry x="101" y="59.5" width="130" height="99" as="geometry" />
        </mxCell>
        <mxCell id="h_IpUAW98vgzTFfaiGCl-26" style="edgeStyle=orthogonalEdgeStyle;rounded=0;orthogonalLoop=1;jettySize=auto;html=1;exitX=0.5;exitY=1;exitDx=0;exitDy=0;entryX=0.25;entryY=1;entryDx=0;entryDy=0;" parent="h_IpUAW98vgzTFfaiGCl-21" source="h_IpUAW98vgzTFfaiGCl-25" target="h_IpUAW98vgzTFfaiGCl-28" edge="1">
          <mxGeometry relative="1" as="geometry">
            <mxPoint x="1100" y="140" as="targetPoint" />
            <mxPoint x="510" y="170" as="sourcePoint" />
            <Array as="points">
              <mxPoint x="166" y="230" />
              <mxPoint x="820" y="230" />
            </Array>
          </mxGeometry>
        </mxCell>
        <mxCell id="h_IpUAW98vgzTFfaiGCl-27" value="Нет" style="edgeLabel;html=1;align=center;verticalAlign=middle;resizable=0;points=[];" parent="h_IpUAW98vgzTFfaiGCl-26" vertex="1" connectable="0">
          <mxGeometry x="-0.3913" y="-3" relative="1" as="geometry">
            <mxPoint x="1" y="-6" as="offset" />
          </mxGeometry>
        </mxCell>
        <mxCell id="h_IpUAW98vgzTFfaiGCl-28" value="Открытие главного окна" style="rounded=0;whiteSpace=wrap;html=1;" parent="h_IpUAW98vgzTFfaiGCl-21" vertex="1">
          <mxGeometry x="790" y="79" width="120" height="60" as="geometry" />
        </mxCell>
        <mxCell id="h_IpUAW98vgzTFfaiGCl-29" value="" style="ellipse;html=1;shape=endState;fillColor=#000000;strokeColor=#ff0000;" parent="h_IpUAW98vgzTFfaiGCl-21" vertex="1">
          <mxGeometry x="970" y="84" width="49" height="50" as="geometry" />
        </mxCell>
        <mxCell id="h_IpUAW98vgzTFfaiGCl-30" style="edgeStyle=orthogonalEdgeStyle;rounded=0;orthogonalLoop=1;jettySize=auto;html=1;entryX=0;entryY=0.5;entryDx=0;entryDy=0;" parent="h_IpUAW98vgzTFfaiGCl-21" source="h_IpUAW98vgzTFfaiGCl-28" target="h_IpUAW98vgzTFfaiGCl-29" edge="1">
          <mxGeometry relative="1" as="geometry" />
        </mxCell>
        <mxCell id="h_IpUAW98vgzTFfaiGCl-31" value="" style="ellipse;whiteSpace=wrap;html=1;aspect=fixed;" parent="h_IpUAW98vgzTFfaiGCl-21" vertex="1">
          <mxGeometry x="11" y="86" width="50" height="50" as="geometry" />
        </mxCell>
        <mxCell id="h_IpUAW98vgzTFfaiGCl-32" style="edgeStyle=orthogonalEdgeStyle;rounded=0;orthogonalLoop=1;jettySize=auto;html=1;entryX=0;entryY=0.5;entryDx=0;entryDy=0;" parent="h_IpUAW98vgzTFfaiGCl-21" source="h_IpUAW98vgzTFfaiGCl-33" target="h_IpUAW98vgzTFfaiGCl-35" edge="1">
          <mxGeometry relative="1" as="geometry" />
        </mxCell>
        <mxCell id="h_IpUAW98vgzTFfaiGCl-33" value="Открытие окна ввода пароля" style="rounded=0;whiteSpace=wrap;html=1;" parent="h_IpUAW98vgzTFfaiGCl-21" vertex="1">
          <mxGeometry x="261" y="80" width="120" height="60" as="geometry" />
        </mxCell>
        <mxCell id="h_IpUAW98vgzTFfaiGCl-34" style="edgeStyle=orthogonalEdgeStyle;rounded=0;orthogonalLoop=1;jettySize=auto;html=1;entryX=0;entryY=0.5;entryDx=0;entryDy=0;" parent="h_IpUAW98vgzTFfaiGCl-21" source="h_IpUAW98vgzTFfaiGCl-35" target="h_IpUAW98vgzTFfaiGCl-38" edge="1">
          <mxGeometry relative="1" as="geometry" />
        </mxCell>
        <mxCell id="h_IpUAW98vgzTFfaiGCl-35" value="Ввод пароля" style="rounded=0;whiteSpace=wrap;html=1;" parent="h_IpUAW98vgzTFfaiGCl-21" vertex="1">
          <mxGeometry x="411" y="79" width="120" height="60" as="geometry" />
        </mxCell>
        <mxCell id="h_IpUAW98vgzTFfaiGCl-36" value="Да" style="edgeStyle=orthogonalEdgeStyle;rounded=0;orthogonalLoop=1;jettySize=auto;html=1;entryX=0;entryY=0.5;entryDx=0;entryDy=0;" parent="h_IpUAW98vgzTFfaiGCl-21" source="h_IpUAW98vgzTFfaiGCl-38" target="h_IpUAW98vgzTFfaiGCl-28" edge="1">
          <mxGeometry relative="1" as="geometry">
            <mxPoint x="830" y="109" as="targetPoint" />
          </mxGeometry>
        </mxCell>
        <mxCell id="h_IpUAW98vgzTFfaiGCl-37" value="Нет" style="edgeStyle=orthogonalEdgeStyle;rounded=0;orthogonalLoop=1;jettySize=auto;html=1;entryX=0;entryY=0.5;entryDx=0;entryDy=0;" parent="h_IpUAW98vgzTFfaiGCl-21" source="h_IpUAW98vgzTFfaiGCl-38" target="h_IpUAW98vgzTFfaiGCl-74" edge="1">
          <mxGeometry relative="1" as="geometry">
            <Array as="points">
              <mxPoint x="636" y="207" />
            </Array>
            <mxPoint x="636" y="190" as="targetPoint" />
          </mxGeometry>
        </mxCell>
        <mxCell id="h_IpUAW98vgzTFfaiGCl-38" value="&lt;font style=&quot;font-size: 10px;&quot;&gt;Введенный пароль соответствует &lt;br&gt;записанному в бд?&lt;/font&gt;" style="rhombus;whiteSpace=wrap;html=1;" parent="h_IpUAW98vgzTFfaiGCl-21" vertex="1">
          <mxGeometry x="571" y="59.5" width="130" height="99" as="geometry" />
        </mxCell>
        <mxCell id="h_IpUAW98vgzTFfaiGCl-75" style="edgeStyle=orthogonalEdgeStyle;rounded=0;orthogonalLoop=1;jettySize=auto;html=1;entryX=0.5;entryY=1;entryDx=0;entryDy=0;" parent="h_IpUAW98vgzTFfaiGCl-21" source="h_IpUAW98vgzTFfaiGCl-74" target="h_IpUAW98vgzTFfaiGCl-29" edge="1">
          <mxGeometry relative="1" as="geometry" />
        </mxCell>
        <mxCell id="h_IpUAW98vgzTFfaiGCl-74" value="Закрытие&lt;br&gt;приложения" style="rounded=0;whiteSpace=wrap;html=1;" parent="h_IpUAW98vgzTFfaiGCl-21" vertex="1">
          <mxGeometry x="840" y="177" width="120" height="60" as="geometry" />
        </mxCell>
        <mxCell id="h_IpUAW98vgzTFfaiGCl-46" value="Отключение входа по паролю" style="swimlane;whiteSpace=wrap;html=1;" parent="1" vertex="1">
          <mxGeometry y="650" width="1340" height="310" as="geometry" />
        </mxCell>
        <mxCell id="h_IpUAW98vgzTFfaiGCl-47" style="edgeStyle=orthogonalEdgeStyle;rounded=0;orthogonalLoop=1;jettySize=auto;html=1;entryX=0;entryY=0.5;entryDx=0;entryDy=0;" parent="h_IpUAW98vgzTFfaiGCl-46" target="h_IpUAW98vgzTFfaiGCl-58" edge="1">
          <mxGeometry relative="1" as="geometry">
            <mxPoint x="101" y="108.99999999999955" as="targetPoint" />
            <mxPoint x="60" y="109" as="sourcePoint" />
          </mxGeometry>
        </mxCell>
        <mxCell id="h_IpUAW98vgzTFfaiGCl-53" value="Сохранение данных в базе данных и установка пароля, как неиспользуемого" style="rounded=0;whiteSpace=wrap;html=1;" parent="h_IpUAW98vgzTFfaiGCl-46" vertex="1">
          <mxGeometry x="930" y="78" width="120" height="61" as="geometry" />
        </mxCell>
        <mxCell id="h_IpUAW98vgzTFfaiGCl-54" value="" style="ellipse;html=1;shape=endState;fillColor=#000000;strokeColor=#ff0000;" parent="h_IpUAW98vgzTFfaiGCl-46" vertex="1">
          <mxGeometry x="1280" y="84" width="50" height="50" as="geometry" />
        </mxCell>
        <mxCell id="h_IpUAW98vgzTFfaiGCl-55" style="edgeStyle=orthogonalEdgeStyle;rounded=0;orthogonalLoop=1;jettySize=auto;html=1;entryX=0;entryY=0.5;entryDx=0;entryDy=0;" parent="h_IpUAW98vgzTFfaiGCl-46" source="h_IpUAW98vgzTFfaiGCl-53" target="h_IpUAW98vgzTFfaiGCl-70" edge="1">
          <mxGeometry relative="1" as="geometry">
            <mxPoint x="1080" y="90" as="targetPoint" />
          </mxGeometry>
        </mxCell>
        <mxCell id="h_IpUAW98vgzTFfaiGCl-56" value="" style="ellipse;whiteSpace=wrap;html=1;aspect=fixed;" parent="h_IpUAW98vgzTFfaiGCl-46" vertex="1">
          <mxGeometry x="11" y="86" width="50" height="50" as="geometry" />
        </mxCell>
        <mxCell id="h_IpUAW98vgzTFfaiGCl-57" style="edgeStyle=orthogonalEdgeStyle;rounded=0;orthogonalLoop=1;jettySize=auto;html=1;entryX=0;entryY=0.5;entryDx=0;entryDy=0;" parent="h_IpUAW98vgzTFfaiGCl-46" source="h_IpUAW98vgzTFfaiGCl-58" target="h_IpUAW98vgzTFfaiGCl-60" edge="1">
          <mxGeometry relative="1" as="geometry" />
        </mxCell>
        <mxCell id="h_IpUAW98vgzTFfaiGCl-58" value="Открытие вкладки настроек" style="rounded=0;whiteSpace=wrap;html=1;" parent="h_IpUAW98vgzTFfaiGCl-46" vertex="1">
          <mxGeometry x="110" y="79" width="120" height="60" as="geometry" />
        </mxCell>
        <mxCell id="h_IpUAW98vgzTFfaiGCl-72" style="edgeStyle=orthogonalEdgeStyle;rounded=0;orthogonalLoop=1;jettySize=auto;html=1;entryX=0;entryY=0.5;entryDx=0;entryDy=0;" parent="h_IpUAW98vgzTFfaiGCl-46" source="h_IpUAW98vgzTFfaiGCl-60" target="h_IpUAW98vgzTFfaiGCl-71" edge="1">
          <mxGeometry relative="1" as="geometry" />
        </mxCell>
        <mxCell id="h_IpUAW98vgzTFfaiGCl-60" value="Снятие чекбокса &quot;Использовать этот пароль&quot;" style="rounded=0;whiteSpace=wrap;html=1;" parent="h_IpUAW98vgzTFfaiGCl-46" vertex="1">
          <mxGeometry x="260" y="79" width="120" height="60" as="geometry" />
        </mxCell>
        <mxCell id="h_IpUAW98vgzTFfaiGCl-61" value="Да" style="edgeStyle=orthogonalEdgeStyle;rounded=0;orthogonalLoop=1;jettySize=auto;html=1;entryX=0;entryY=0.5;entryDx=0;entryDy=0;" parent="h_IpUAW98vgzTFfaiGCl-46" source="h_IpUAW98vgzTFfaiGCl-63" target="h_IpUAW98vgzTFfaiGCl-78" edge="1">
          <mxGeometry relative="1" as="geometry">
            <mxPoint x="741" y="108.99999999999955" as="targetPoint" />
          </mxGeometry>
        </mxCell>
        <mxCell id="h_IpUAW98vgzTFfaiGCl-76" value="Нет" style="edgeStyle=orthogonalEdgeStyle;rounded=0;orthogonalLoop=1;jettySize=auto;html=1;entryX=0;entryY=0.5;entryDx=0;entryDy=0;" parent="h_IpUAW98vgzTFfaiGCl-46" source="h_IpUAW98vgzTFfaiGCl-63" target="h_IpUAW98vgzTFfaiGCl-65" edge="1">
          <mxGeometry relative="1" as="geometry" />
        </mxCell>
        <mxCell id="h_IpUAW98vgzTFfaiGCl-63" value="&lt;font style=&quot;font-size: 11px;&quot;&gt;Введенный &lt;br&gt;пароль соответствует&lt;br style=&quot;border-color: var(--border-color);&quot;&gt;записанному &lt;br&gt;в бд?&lt;/font&gt;" style="rhombus;whiteSpace=wrap;html=1;" parent="h_IpUAW98vgzTFfaiGCl-46" vertex="1">
          <mxGeometry x="560" y="59.5" width="130" height="99" as="geometry" />
        </mxCell>
        <mxCell id="h_IpUAW98vgzTFfaiGCl-77" style="edgeStyle=orthogonalEdgeStyle;rounded=0;orthogonalLoop=1;jettySize=auto;html=1;entryX=0.5;entryY=1;entryDx=0;entryDy=0;" parent="h_IpUAW98vgzTFfaiGCl-46" source="h_IpUAW98vgzTFfaiGCl-65" target="h_IpUAW98vgzTFfaiGCl-54" edge="1">
          <mxGeometry relative="1" as="geometry" />
        </mxCell>
        <mxCell id="h_IpUAW98vgzTFfaiGCl-65" value="Вывод сообщения об ошибке" style="rounded=0;whiteSpace=wrap;html=1;" parent="h_IpUAW98vgzTFfaiGCl-46" vertex="1">
          <mxGeometry x="661" y="180" width="120" height="60" as="geometry" />
        </mxCell>
        <mxCell id="h_IpUAW98vgzTFfaiGCl-67" value="Нет" style="edgeStyle=orthogonalEdgeStyle;rounded=0;orthogonalLoop=1;jettySize=auto;html=1;entryX=0;entryY=0.5;entryDx=0;entryDy=0;exitX=1;exitY=0.5;exitDx=0;exitDy=0;" parent="h_IpUAW98vgzTFfaiGCl-46" source="h_IpUAW98vgzTFfaiGCl-78" target="h_IpUAW98vgzTFfaiGCl-53" edge="1">
          <mxGeometry relative="1" as="geometry">
            <mxPoint x="871" y="108.99999999999955" as="sourcePoint" />
          </mxGeometry>
        </mxCell>
        <mxCell id="h_IpUAW98vgzTFfaiGCl-69" style="edgeStyle=orthogonalEdgeStyle;rounded=0;orthogonalLoop=1;jettySize=auto;html=1;exitX=1;exitY=0.5;exitDx=0;exitDy=0;entryX=0;entryY=0.5;entryDx=0;entryDy=0;" parent="h_IpUAW98vgzTFfaiGCl-46" source="h_IpUAW98vgzTFfaiGCl-70" target="h_IpUAW98vgzTFfaiGCl-54" edge="1">
          <mxGeometry relative="1" as="geometry" />
        </mxCell>
        <mxCell id="h_IpUAW98vgzTFfaiGCl-70" value="&lt;font style=&quot;font-size: 12px;&quot;&gt;Сохранение данных в базе данных&amp;nbsp; и закрытие окна ввода пароля&lt;/font&gt;" style="rounded=0;whiteSpace=wrap;html=1;" parent="h_IpUAW98vgzTFfaiGCl-46" vertex="1">
          <mxGeometry x="1101" y="79" width="120" height="60" as="geometry" />
        </mxCell>
        <mxCell id="h_IpUAW98vgzTFfaiGCl-73" style="edgeStyle=orthogonalEdgeStyle;rounded=0;orthogonalLoop=1;jettySize=auto;html=1;entryX=0;entryY=0.5;entryDx=0;entryDy=0;" parent="h_IpUAW98vgzTFfaiGCl-46" source="h_IpUAW98vgzTFfaiGCl-71" target="h_IpUAW98vgzTFfaiGCl-63" edge="1">
          <mxGeometry relative="1" as="geometry" />
        </mxCell>
        <mxCell id="h_IpUAW98vgzTFfaiGCl-71" value="Открытие окна ввода пароля" style="rounded=0;whiteSpace=wrap;html=1;" parent="h_IpUAW98vgzTFfaiGCl-46" vertex="1">
          <mxGeometry x="410" y="79" width="120" height="60" as="geometry" />
        </mxCell>
        <mxCell id="h_IpUAW98vgzTFfaiGCl-78" value="Изменение состояния чекбокса на снятый" style="rounded=0;whiteSpace=wrap;html=1;" parent="h_IpUAW98vgzTFfaiGCl-46" vertex="1">
          <mxGeometry x="750" y="79" width="120" height="60" as="geometry" />
        </mxCell>
        <mxCell id="h_IpUAW98vgzTFfaiGCl-99" value="Включение входа по паролю" style="swimlane;whiteSpace=wrap;html=1;" parent="1" vertex="1">
          <mxGeometry y="980" width="1260" height="310" as="geometry" />
        </mxCell>
        <mxCell id="h_IpUAW98vgzTFfaiGCl-145" style="edgeStyle=orthogonalEdgeStyle;rounded=0;orthogonalLoop=1;jettySize=auto;html=1;entryX=0;entryY=0.5;entryDx=0;entryDy=0;" parent="h_IpUAW98vgzTFfaiGCl-99" source="h_IpUAW98vgzTFfaiGCl-101" target="h_IpUAW98vgzTFfaiGCl-142" edge="1">
          <mxGeometry relative="1" as="geometry" />
        </mxCell>
        <mxCell id="h_IpUAW98vgzTFfaiGCl-101" value="Сохранение данных в базе данных и установка пароля, как используемого" style="rounded=0;whiteSpace=wrap;html=1;" parent="h_IpUAW98vgzTFfaiGCl-99" vertex="1">
          <mxGeometry x="620" y="75.75" width="120" height="61" as="geometry" />
        </mxCell>
        <mxCell id="h_IpUAW98vgzTFfaiGCl-102" value="" style="ellipse;html=1;shape=endState;fillColor=#000000;strokeColor=#ff0000;" parent="h_IpUAW98vgzTFfaiGCl-99" vertex="1">
          <mxGeometry x="1180" y="80.75" width="50" height="50" as="geometry" />
        </mxCell>
        <mxCell id="h_IpUAW98vgzTFfaiGCl-121" style="edgeStyle=orthogonalEdgeStyle;rounded=0;orthogonalLoop=1;jettySize=auto;html=1;entryX=0;entryY=0.5;entryDx=0;entryDy=0;" parent="h_IpUAW98vgzTFfaiGCl-99" source="h_IpUAW98vgzTFfaiGCl-104" target="h_IpUAW98vgzTFfaiGCl-106" edge="1">
          <mxGeometry relative="1" as="geometry" />
        </mxCell>
        <mxCell id="h_IpUAW98vgzTFfaiGCl-104" value="" style="ellipse;whiteSpace=wrap;html=1;aspect=fixed;" parent="h_IpUAW98vgzTFfaiGCl-99" vertex="1">
          <mxGeometry x="40" y="80" width="50" height="50" as="geometry" />
        </mxCell>
        <mxCell id="h_IpUAW98vgzTFfaiGCl-105" style="edgeStyle=orthogonalEdgeStyle;rounded=0;orthogonalLoop=1;jettySize=auto;html=1;entryX=0;entryY=0.5;entryDx=0;entryDy=0;" parent="h_IpUAW98vgzTFfaiGCl-99" source="h_IpUAW98vgzTFfaiGCl-106" target="h_IpUAW98vgzTFfaiGCl-108" edge="1">
          <mxGeometry relative="1" as="geometry" />
        </mxCell>
        <mxCell id="h_IpUAW98vgzTFfaiGCl-106" value="Открытие вкладки настроек" style="rounded=0;whiteSpace=wrap;html=1;" parent="h_IpUAW98vgzTFfaiGCl-99" vertex="1">
          <mxGeometry x="140" y="75.75" width="120" height="60" as="geometry" />
        </mxCell>
        <mxCell id="h_IpUAW98vgzTFfaiGCl-107" style="edgeStyle=orthogonalEdgeStyle;rounded=0;orthogonalLoop=1;jettySize=auto;html=1;entryX=0;entryY=0.5;entryDx=0;entryDy=0;" parent="h_IpUAW98vgzTFfaiGCl-99" source="h_IpUAW98vgzTFfaiGCl-108" target="h_IpUAW98vgzTFfaiGCl-119" edge="1">
          <mxGeometry relative="1" as="geometry">
            <mxPoint x="410" y="109" as="targetPoint" />
          </mxGeometry>
        </mxCell>
        <mxCell id="h_IpUAW98vgzTFfaiGCl-108" value="Установка чекбокса &quot;Использовать этот пароль&quot;" style="rounded=0;whiteSpace=wrap;html=1;" parent="h_IpUAW98vgzTFfaiGCl-99" vertex="1">
          <mxGeometry x="300" y="75.75" width="120" height="60" as="geometry" />
        </mxCell>
        <mxCell id="h_IpUAW98vgzTFfaiGCl-120" style="edgeStyle=orthogonalEdgeStyle;rounded=0;orthogonalLoop=1;jettySize=auto;html=1;entryX=0;entryY=0.5;entryDx=0;entryDy=0;" parent="h_IpUAW98vgzTFfaiGCl-99" source="h_IpUAW98vgzTFfaiGCl-119" target="h_IpUAW98vgzTFfaiGCl-101" edge="1">
          <mxGeometry relative="1" as="geometry" />
        </mxCell>
        <mxCell id="h_IpUAW98vgzTFfaiGCl-119" value="Изменение состояния чекбокса на установленный" style="rounded=0;whiteSpace=wrap;html=1;" parent="h_IpUAW98vgzTFfaiGCl-99" vertex="1">
          <mxGeometry x="460" y="75.5" width="120" height="60" as="geometry" />
        </mxCell>
        <mxCell id="h_IpUAW98vgzTFfaiGCl-146" value="Нет" style="edgeStyle=orthogonalEdgeStyle;rounded=0;orthogonalLoop=1;jettySize=auto;html=1;entryX=0.5;entryY=0;entryDx=0;entryDy=0;" parent="h_IpUAW98vgzTFfaiGCl-99" source="h_IpUAW98vgzTFfaiGCl-142" target="h_IpUAW98vgzTFfaiGCl-143" edge="1">
          <mxGeometry relative="1" as="geometry" />
        </mxCell>
        <mxCell id="h_IpUAW98vgzTFfaiGCl-147" value="Да" style="edgeStyle=orthogonalEdgeStyle;rounded=0;orthogonalLoop=1;jettySize=auto;html=1;entryX=0;entryY=0.5;entryDx=0;entryDy=0;" parent="h_IpUAW98vgzTFfaiGCl-99" source="h_IpUAW98vgzTFfaiGCl-142" target="h_IpUAW98vgzTFfaiGCl-144" edge="1">
          <mxGeometry relative="1" as="geometry" />
        </mxCell>
        <mxCell id="h_IpUAW98vgzTFfaiGCl-142" value="&lt;span style=&quot;font-size: 11px;&quot;&gt;Изменения&lt;br&gt;записаны успешно?&lt;/span&gt;" style="rhombus;whiteSpace=wrap;html=1;" parent="h_IpUAW98vgzTFfaiGCl-99" vertex="1">
          <mxGeometry x="785" y="56.25" width="130" height="99" as="geometry" />
        </mxCell>
        <mxCell id="h_IpUAW98vgzTFfaiGCl-149" style="edgeStyle=orthogonalEdgeStyle;rounded=0;orthogonalLoop=1;jettySize=auto;html=1;entryX=0.5;entryY=1;entryDx=0;entryDy=0;" parent="h_IpUAW98vgzTFfaiGCl-99" source="h_IpUAW98vgzTFfaiGCl-143" target="h_IpUAW98vgzTFfaiGCl-102" edge="1">
          <mxGeometry relative="1" as="geometry" />
        </mxCell>
        <mxCell id="h_IpUAW98vgzTFfaiGCl-143" value="Выдача уведомления об ошибке" style="rounded=0;whiteSpace=wrap;html=1;" parent="h_IpUAW98vgzTFfaiGCl-99" vertex="1">
          <mxGeometry x="790" y="194.75" width="120" height="61" as="geometry" />
        </mxCell>
        <mxCell id="h_IpUAW98vgzTFfaiGCl-148" style="edgeStyle=orthogonalEdgeStyle;rounded=0;orthogonalLoop=1;jettySize=auto;html=1;entryX=0;entryY=0.5;entryDx=0;entryDy=0;" parent="h_IpUAW98vgzTFfaiGCl-99" source="h_IpUAW98vgzTFfaiGCl-144" target="h_IpUAW98vgzTFfaiGCl-102" edge="1">
          <mxGeometry relative="1" as="geometry" />
        </mxCell>
        <mxCell id="h_IpUAW98vgzTFfaiGCl-144" value="Выдача уведомления об успешном изменении данных" style="rounded=0;whiteSpace=wrap;html=1;" parent="h_IpUAW98vgzTFfaiGCl-99" vertex="1">
          <mxGeometry x="960" y="74.5" width="120" height="61" as="geometry" />
        </mxCell>
        <mxCell id="h_IpUAW98vgzTFfaiGCl-122" value="Установка параметров" style="swimlane;whiteSpace=wrap;html=1;" parent="1" vertex="1">
          <mxGeometry y="1310" width="1340" height="310" as="geometry" />
        </mxCell>
        <mxCell id="h_IpUAW98vgzTFfaiGCl-123" value="Сохранение данных в базе данных" style="rounded=0;whiteSpace=wrap;html=1;" parent="h_IpUAW98vgzTFfaiGCl-122" vertex="1">
          <mxGeometry x="676" y="74.25" width="120" height="61" as="geometry" />
        </mxCell>
        <mxCell id="h_IpUAW98vgzTFfaiGCl-124" value="" style="ellipse;html=1;shape=endState;fillColor=#000000;strokeColor=#ff0000;" parent="h_IpUAW98vgzTFfaiGCl-122" vertex="1">
          <mxGeometry x="1271" y="80" width="50" height="50" as="geometry" />
        </mxCell>
        <mxCell id="h_IpUAW98vgzTFfaiGCl-126" style="edgeStyle=orthogonalEdgeStyle;rounded=0;orthogonalLoop=1;jettySize=auto;html=1;entryX=0;entryY=0.5;entryDx=0;entryDy=0;" parent="h_IpUAW98vgzTFfaiGCl-122" source="h_IpUAW98vgzTFfaiGCl-127" target="h_IpUAW98vgzTFfaiGCl-129" edge="1">
          <mxGeometry relative="1" as="geometry" />
        </mxCell>
        <mxCell id="h_IpUAW98vgzTFfaiGCl-127" value="" style="ellipse;whiteSpace=wrap;html=1;aspect=fixed;" parent="h_IpUAW98vgzTFfaiGCl-122" vertex="1">
          <mxGeometry x="40" y="80" width="50" height="50" as="geometry" />
        </mxCell>
        <mxCell id="h_IpUAW98vgzTFfaiGCl-128" style="edgeStyle=orthogonalEdgeStyle;rounded=0;orthogonalLoop=1;jettySize=auto;html=1;entryX=0;entryY=0.5;entryDx=0;entryDy=0;" parent="h_IpUAW98vgzTFfaiGCl-122" source="h_IpUAW98vgzTFfaiGCl-129" target="h_IpUAW98vgzTFfaiGCl-131" edge="1">
          <mxGeometry relative="1" as="geometry" />
        </mxCell>
        <mxCell id="h_IpUAW98vgzTFfaiGCl-129" value="Открытие вкладки настроек" style="rounded=0;whiteSpace=wrap;html=1;" parent="h_IpUAW98vgzTFfaiGCl-122" vertex="1">
          <mxGeometry x="140" y="75.75" width="120" height="60" as="geometry" />
        </mxCell>
        <mxCell id="h_IpUAW98vgzTFfaiGCl-130" style="edgeStyle=orthogonalEdgeStyle;rounded=0;orthogonalLoop=1;jettySize=auto;html=1;entryX=0;entryY=0.5;entryDx=0;entryDy=0;" parent="h_IpUAW98vgzTFfaiGCl-122" source="h_IpUAW98vgzTFfaiGCl-131" target="h_IpUAW98vgzTFfaiGCl-133" edge="1">
          <mxGeometry relative="1" as="geometry">
            <mxPoint x="410" y="109" as="targetPoint" />
          </mxGeometry>
        </mxCell>
        <mxCell id="h_IpUAW98vgzTFfaiGCl-131" value="Ввод данных в соответствующие поля" style="rounded=0;whiteSpace=wrap;html=1;" parent="h_IpUAW98vgzTFfaiGCl-122" vertex="1">
          <mxGeometry x="320" y="75.25" width="120" height="60" as="geometry" />
        </mxCell>
        <mxCell id="h_IpUAW98vgzTFfaiGCl-132" style="edgeStyle=orthogonalEdgeStyle;rounded=0;orthogonalLoop=1;jettySize=auto;html=1;entryX=0;entryY=0.5;entryDx=0;entryDy=0;" parent="h_IpUAW98vgzTFfaiGCl-122" source="h_IpUAW98vgzTFfaiGCl-133" target="h_IpUAW98vgzTFfaiGCl-123" edge="1">
          <mxGeometry relative="1" as="geometry" />
        </mxCell>
        <mxCell id="h_IpUAW98vgzTFfaiGCl-133" value="Нажатие кнопки записи параметров" style="rounded=0;whiteSpace=wrap;html=1;" parent="h_IpUAW98vgzTFfaiGCl-122" vertex="1">
          <mxGeometry x="496" y="75.25" width="120" height="60" as="geometry" />
        </mxCell>
        <mxCell id="h_IpUAW98vgzTFfaiGCl-138" value="Нет" style="edgeStyle=orthogonalEdgeStyle;rounded=0;orthogonalLoop=1;jettySize=auto;html=1;entryX=0.5;entryY=0;entryDx=0;entryDy=0;" parent="h_IpUAW98vgzTFfaiGCl-122" source="h_IpUAW98vgzTFfaiGCl-134" target="h_IpUAW98vgzTFfaiGCl-136" edge="1">
          <mxGeometry relative="1" as="geometry" />
        </mxCell>
        <mxCell id="h_IpUAW98vgzTFfaiGCl-139" value="Да" style="edgeStyle=orthogonalEdgeStyle;rounded=0;orthogonalLoop=1;jettySize=auto;html=1;entryX=0;entryY=0.5;entryDx=0;entryDy=0;" parent="h_IpUAW98vgzTFfaiGCl-122" source="h_IpUAW98vgzTFfaiGCl-134" target="h_IpUAW98vgzTFfaiGCl-137" edge="1">
          <mxGeometry relative="1" as="geometry" />
        </mxCell>
        <mxCell id="h_IpUAW98vgzTFfaiGCl-134" value="&lt;span style=&quot;font-size: 11px;&quot;&gt;Изменения&lt;br&gt;записаны успешно?&lt;/span&gt;" style="rhombus;whiteSpace=wrap;html=1;" parent="h_IpUAW98vgzTFfaiGCl-122" vertex="1">
          <mxGeometry x="870" y="55.25" width="130" height="99" as="geometry" />
        </mxCell>
        <mxCell id="h_IpUAW98vgzTFfaiGCl-135" value="" style="edgeStyle=orthogonalEdgeStyle;rounded=0;orthogonalLoop=1;jettySize=auto;html=1;entryX=0;entryY=0.5;entryDx=0;entryDy=0;" parent="h_IpUAW98vgzTFfaiGCl-122" source="h_IpUAW98vgzTFfaiGCl-123" target="h_IpUAW98vgzTFfaiGCl-134" edge="1">
          <mxGeometry relative="1" as="geometry">
            <mxPoint x="1291" y="1225" as="targetPoint" />
            <mxPoint x="816" y="1225" as="sourcePoint" />
          </mxGeometry>
        </mxCell>
        <mxCell id="h_IpUAW98vgzTFfaiGCl-140" style="edgeStyle=orthogonalEdgeStyle;rounded=0;orthogonalLoop=1;jettySize=auto;html=1;entryX=0.5;entryY=1;entryDx=0;entryDy=0;" parent="h_IpUAW98vgzTFfaiGCl-122" source="h_IpUAW98vgzTFfaiGCl-136" target="h_IpUAW98vgzTFfaiGCl-124" edge="1">
          <mxGeometry relative="1" as="geometry" />
        </mxCell>
        <mxCell id="h_IpUAW98vgzTFfaiGCl-136" value="Выдача уведомления об ошибке" style="rounded=0;whiteSpace=wrap;html=1;" parent="h_IpUAW98vgzTFfaiGCl-122" vertex="1">
          <mxGeometry x="875" y="190" width="120" height="61" as="geometry" />
        </mxCell>
        <mxCell id="h_IpUAW98vgzTFfaiGCl-141" style="edgeStyle=orthogonalEdgeStyle;rounded=0;orthogonalLoop=1;jettySize=auto;html=1;entryX=0;entryY=0.5;entryDx=0;entryDy=0;" parent="h_IpUAW98vgzTFfaiGCl-122" source="h_IpUAW98vgzTFfaiGCl-137" target="h_IpUAW98vgzTFfaiGCl-124" edge="1">
          <mxGeometry relative="1" as="geometry" />
        </mxCell>
        <mxCell id="h_IpUAW98vgzTFfaiGCl-137" value="Выдача уведомления об успешном изменении данных" style="rounded=0;whiteSpace=wrap;html=1;" parent="h_IpUAW98vgzTFfaiGCl-122" vertex="1">
          <mxGeometry x="1080" y="74.25" width="120" height="61" as="geometry" />
        </mxCell>
        <mxCell id="h_IpUAW98vgzTFfaiGCl-158" value="Выбор пользователем направления" style="swimlane;whiteSpace=wrap;html=1;" parent="1" vertex="1">
          <mxGeometry y="1640" width="1290" height="310" as="geometry" />
        </mxCell>
        <mxCell id="h_IpUAW98vgzTFfaiGCl-180" style="edgeStyle=orthogonalEdgeStyle;rounded=0;orthogonalLoop=1;jettySize=auto;html=1;entryX=0;entryY=0.5;entryDx=0;entryDy=0;" parent="h_IpUAW98vgzTFfaiGCl-158" source="h_IpUAW98vgzTFfaiGCl-159" target="h_IpUAW98vgzTFfaiGCl-177" edge="1">
          <mxGeometry relative="1" as="geometry" />
        </mxCell>
        <mxCell id="h_IpUAW98vgzTFfaiGCl-159" value="Отправка ботом сообщения с кнопками выбора уровня подготовки" style="rounded=0;whiteSpace=wrap;html=1;" parent="h_IpUAW98vgzTFfaiGCl-158" vertex="1">
          <mxGeometry x="590" y="73.25" width="120" height="61" as="geometry" />
        </mxCell>
        <mxCell id="h_IpUAW98vgzTFfaiGCl-160" value="" style="ellipse;html=1;shape=endState;fillColor=#000000;strokeColor=#ff0000;" parent="h_IpUAW98vgzTFfaiGCl-158" vertex="1">
          <mxGeometry x="1221" y="174.5" width="50" height="50" as="geometry" />
        </mxCell>
        <mxCell id="h_IpUAW98vgzTFfaiGCl-161" style="edgeStyle=orthogonalEdgeStyle;rounded=0;orthogonalLoop=1;jettySize=auto;html=1;entryX=0;entryY=0.5;entryDx=0;entryDy=0;" parent="h_IpUAW98vgzTFfaiGCl-158" source="h_IpUAW98vgzTFfaiGCl-162" target="h_IpUAW98vgzTFfaiGCl-164" edge="1">
          <mxGeometry relative="1" as="geometry" />
        </mxCell>
        <mxCell id="h_IpUAW98vgzTFfaiGCl-162" value="" style="ellipse;whiteSpace=wrap;html=1;aspect=fixed;" parent="h_IpUAW98vgzTFfaiGCl-158" vertex="1">
          <mxGeometry x="40" y="80" width="50" height="50" as="geometry" />
        </mxCell>
        <mxCell id="h_IpUAW98vgzTFfaiGCl-163" style="edgeStyle=orthogonalEdgeStyle;rounded=0;orthogonalLoop=1;jettySize=auto;html=1;entryX=0;entryY=0.5;entryDx=0;entryDy=0;" parent="h_IpUAW98vgzTFfaiGCl-158" source="h_IpUAW98vgzTFfaiGCl-164" target="h_IpUAW98vgzTFfaiGCl-166" edge="1">
          <mxGeometry relative="1" as="geometry" />
        </mxCell>
        <mxCell id="h_IpUAW98vgzTFfaiGCl-164" value="Запуск бота" style="rounded=0;whiteSpace=wrap;html=1;" parent="h_IpUAW98vgzTFfaiGCl-158" vertex="1">
          <mxGeometry x="140" y="75.75" width="120" height="60" as="geometry" />
        </mxCell>
        <mxCell id="h_IpUAW98vgzTFfaiGCl-165" style="edgeStyle=orthogonalEdgeStyle;rounded=0;orthogonalLoop=1;jettySize=auto;html=1;entryX=0;entryY=0.5;entryDx=0;entryDy=0;" parent="h_IpUAW98vgzTFfaiGCl-158" source="h_IpUAW98vgzTFfaiGCl-166" target="h_IpUAW98vgzTFfaiGCl-168" edge="1">
          <mxGeometry relative="1" as="geometry">
            <mxPoint x="410" y="109" as="targetPoint" />
          </mxGeometry>
        </mxCell>
        <mxCell id="h_IpUAW98vgzTFfaiGCl-166" value="Отправка ботом приветствия" style="rounded=0;whiteSpace=wrap;html=1;" parent="h_IpUAW98vgzTFfaiGCl-158" vertex="1">
          <mxGeometry x="290" y="75.25" width="120" height="60" as="geometry" />
        </mxCell>
        <mxCell id="h_IpUAW98vgzTFfaiGCl-167" style="edgeStyle=orthogonalEdgeStyle;rounded=0;orthogonalLoop=1;jettySize=auto;html=1;entryX=0;entryY=0.5;entryDx=0;entryDy=0;" parent="h_IpUAW98vgzTFfaiGCl-158" source="h_IpUAW98vgzTFfaiGCl-168" target="h_IpUAW98vgzTFfaiGCl-159" edge="1">
          <mxGeometry relative="1" as="geometry" />
        </mxCell>
        <mxCell id="h_IpUAW98vgzTFfaiGCl-168" value="Нажатие кнопки &quot;Выбрать программу обучения&quot;" style="rounded=0;whiteSpace=wrap;html=1;" parent="h_IpUAW98vgzTFfaiGCl-158" vertex="1">
          <mxGeometry x="440" y="74.25" width="120" height="60" as="geometry" />
        </mxCell>
        <mxCell id="h_IpUAW98vgzTFfaiGCl-175" style="edgeStyle=orthogonalEdgeStyle;rounded=0;orthogonalLoop=1;jettySize=auto;html=1;entryX=0;entryY=0.5;entryDx=0;entryDy=0;" parent="h_IpUAW98vgzTFfaiGCl-158" source="h_IpUAW98vgzTFfaiGCl-176" target="h_IpUAW98vgzTFfaiGCl-178" edge="1">
          <mxGeometry relative="1" as="geometry">
            <Array as="points">
              <mxPoint x="1050" y="105" />
              <mxPoint x="1050" y="150" />
              <mxPoint x="120" y="150" />
              <mxPoint x="120" y="201" />
            </Array>
          </mxGeometry>
        </mxCell>
        <mxCell id="h_IpUAW98vgzTFfaiGCl-176" value="Запись совершенного выбора на данном этапе" style="rounded=0;whiteSpace=wrap;html=1;" parent="h_IpUAW98vgzTFfaiGCl-158" vertex="1">
          <mxGeometry x="890" y="74.25" width="120" height="61" as="geometry" />
        </mxCell>
        <mxCell id="h_IpUAW98vgzTFfaiGCl-181" style="edgeStyle=orthogonalEdgeStyle;rounded=0;orthogonalLoop=1;jettySize=auto;html=1;entryX=0;entryY=0.5;entryDx=0;entryDy=0;" parent="h_IpUAW98vgzTFfaiGCl-158" source="h_IpUAW98vgzTFfaiGCl-177" target="h_IpUAW98vgzTFfaiGCl-176" edge="1">
          <mxGeometry relative="1" as="geometry" />
        </mxCell>
        <mxCell id="h_IpUAW98vgzTFfaiGCl-177" value="Выбор пользователем требуемого уровня подготовки" style="rounded=0;whiteSpace=wrap;html=1;" parent="h_IpUAW98vgzTFfaiGCl-158" vertex="1">
          <mxGeometry x="740" y="73.25" width="120" height="61" as="geometry" />
        </mxCell>
        <mxCell id="h_IpUAW98vgzTFfaiGCl-182" style="edgeStyle=orthogonalEdgeStyle;rounded=0;orthogonalLoop=1;jettySize=auto;html=1;entryX=0;entryY=0.5;entryDx=0;entryDy=0;" parent="h_IpUAW98vgzTFfaiGCl-158" source="h_IpUAW98vgzTFfaiGCl-178" target="h_IpUAW98vgzTFfaiGCl-179" edge="1">
          <mxGeometry relative="1" as="geometry" />
        </mxCell>
        <mxCell id="h_IpUAW98vgzTFfaiGCl-178" value="Отправка ботом сообщения с кнопками выбора университета" style="rounded=0;whiteSpace=wrap;html=1;" parent="h_IpUAW98vgzTFfaiGCl-158" vertex="1">
          <mxGeometry x="140" y="170" width="120" height="61" as="geometry" />
        </mxCell>
        <mxCell id="h_IpUAW98vgzTFfaiGCl-184" style="edgeStyle=orthogonalEdgeStyle;rounded=0;orthogonalLoop=1;jettySize=auto;html=1;entryX=0;entryY=0.5;entryDx=0;entryDy=0;" parent="h_IpUAW98vgzTFfaiGCl-158" source="h_IpUAW98vgzTFfaiGCl-179" target="h_IpUAW98vgzTFfaiGCl-183" edge="1">
          <mxGeometry relative="1" as="geometry" />
        </mxCell>
        <mxCell id="h_IpUAW98vgzTFfaiGCl-179" value="Выбор пользователем требуемого университета" style="rounded=0;whiteSpace=wrap;html=1;" parent="h_IpUAW98vgzTFfaiGCl-158" vertex="1">
          <mxGeometry x="290" y="170" width="120" height="61" as="geometry" />
        </mxCell>
        <mxCell id="h_IpUAW98vgzTFfaiGCl-186" value="" style="edgeStyle=orthogonalEdgeStyle;rounded=0;orthogonalLoop=1;jettySize=auto;html=1;" parent="h_IpUAW98vgzTFfaiGCl-158" source="h_IpUAW98vgzTFfaiGCl-183" target="h_IpUAW98vgzTFfaiGCl-185" edge="1">
          <mxGeometry relative="1" as="geometry" />
        </mxCell>
        <mxCell id="h_IpUAW98vgzTFfaiGCl-183" value="Запись совершенного выбора на данном этапе" style="rounded=0;whiteSpace=wrap;html=1;" parent="h_IpUAW98vgzTFfaiGCl-158" vertex="1">
          <mxGeometry x="440" y="170" width="120" height="61" as="geometry" />
        </mxCell>
        <mxCell id="h_IpUAW98vgzTFfaiGCl-188" style="edgeStyle=orthogonalEdgeStyle;rounded=0;orthogonalLoop=1;jettySize=auto;html=1;entryX=0;entryY=0.5;entryDx=0;entryDy=0;" parent="h_IpUAW98vgzTFfaiGCl-158" source="h_IpUAW98vgzTFfaiGCl-185" target="h_IpUAW98vgzTFfaiGCl-187" edge="1">
          <mxGeometry relative="1" as="geometry" />
        </mxCell>
        <mxCell id="h_IpUAW98vgzTFfaiGCl-185" value="&lt;font style=&quot;font-size: 10px;&quot;&gt;Отправка ботом сообщения, содержащие удовлетворяющие условиям направления&lt;/font&gt;" style="whiteSpace=wrap;html=1;rounded=0;" parent="h_IpUAW98vgzTFfaiGCl-158" vertex="1">
          <mxGeometry x="590" y="170" width="120" height="60" as="geometry" />
        </mxCell>
        <mxCell id="h_IpUAW98vgzTFfaiGCl-190" style="edgeStyle=orthogonalEdgeStyle;rounded=0;orthogonalLoop=1;jettySize=auto;html=1;entryX=0;entryY=0.5;entryDx=0;entryDy=0;" parent="h_IpUAW98vgzTFfaiGCl-158" source="h_IpUAW98vgzTFfaiGCl-187" target="h_IpUAW98vgzTFfaiGCl-189" edge="1">
          <mxGeometry relative="1" as="geometry" />
        </mxCell>
        <mxCell id="h_IpUAW98vgzTFfaiGCl-187" value="Выбор пользователем требуемого направления" style="rounded=0;whiteSpace=wrap;html=1;" parent="h_IpUAW98vgzTFfaiGCl-158" vertex="1">
          <mxGeometry x="740" y="169" width="120" height="61" as="geometry" />
        </mxCell>
        <mxCell id="msr6TJh0qpImIcRUDAPZ-2" style="edgeStyle=orthogonalEdgeStyle;rounded=0;orthogonalLoop=1;jettySize=auto;html=1;entryX=0;entryY=0.5;entryDx=0;entryDy=0;" parent="h_IpUAW98vgzTFfaiGCl-158" source="h_IpUAW98vgzTFfaiGCl-189" target="msr6TJh0qpImIcRUDAPZ-1" edge="1">
          <mxGeometry relative="1" as="geometry" />
        </mxCell>
        <mxCell id="h_IpUAW98vgzTFfaiGCl-189" value="Отправка ботом сообщения с подробной информацией" style="rounded=0;whiteSpace=wrap;html=1;" parent="h_IpUAW98vgzTFfaiGCl-158" vertex="1">
          <mxGeometry x="890" y="170" width="120" height="61" as="geometry" />
        </mxCell>
        <mxCell id="msr6TJh0qpImIcRUDAPZ-3" style="edgeStyle=orthogonalEdgeStyle;rounded=0;orthogonalLoop=1;jettySize=auto;html=1;entryX=0;entryY=0.5;entryDx=0;entryDy=0;" parent="h_IpUAW98vgzTFfaiGCl-158" source="msr6TJh0qpImIcRUDAPZ-1" target="h_IpUAW98vgzTFfaiGCl-160" edge="1">
          <mxGeometry relative="1" as="geometry" />
        </mxCell>
        <mxCell id="msr6TJh0qpImIcRUDAPZ-1" value="Запись в бд информации о пользователе и его выборе" style="rounded=0;whiteSpace=wrap;html=1;" parent="h_IpUAW98vgzTFfaiGCl-158" vertex="1">
          <mxGeometry x="1060" y="169.5" width="120" height="61" as="geometry" />
        </mxCell>
      </root>
    </mxGraphModel>
  </diagram>
</mxfile>
